# xmcd
#
# Track frame offsets: 
#        150
#        16622
#        33440
#        53377
#        66772
#        84450
#        100807
#        119667
#        133850
#        150040
#        165995
#        177630
#        192592
#        207322
#        231034
#        248355
#        265085
#        281132
#        294095
#        310787
#
# Disc length: 4421 seconds
#
# Revision: 0
# Processed by: cddbd v1.5.2PL0 Copyright (c) Steve Scherf et al.
# Submitted via: ExactAudioCopy v0.95b4
#
DISCID=04114314
DTITLE=Kris Kristofferson - Surreal Thing (1976) and Easter Island (1978
DTITLE=) {2009 Wounded Bird Ed}
DYEAR=2009
DGENRE=Country
TTITLE0=You Show Me Yours (And I'll Show You MIne)
TTITLE1=Killing Time
TTITLE2=The Prisoner
TTITLE3=Eddie The Eunuch
TTITLE4=It's Never Gonna Be The Same Again
TTITLE5=I Got A Life Of My Own
TTITLE6=The Stranger I Love
TTITLE7=The Golden Idol
TTITLE8=Bad Love Story
TTITLE9=If You Don't Like Hank Williams
TTITLE10=Risky Bizness 
TTITLE11=How Do You Feel (About Foolin Around) 
TTITLE12=Forever In Your Love 
TTITLE13=The Sabre And The Rose 
TTITLE14=Spooky Lady's Revenge 
TTITLE15=Easter Island 
TTITLE16=The Bigger The Fool (The Harder The Fall)
TTITLE17=Lay Me Down (And Love The World Away) 
TTITLE18=The Fighter 
TTITLE19=Living Legend 
EXTD=
EXTT0=
EXTT1=
EXTT2=
EXTT3=
EXTT4=
EXTT5=
EXTT6=
EXTT7=
EXTT8=
EXTT9=
EXTT10=
EXTT11=
EXTT12=
EXTT13=
EXTT14=
EXTT15=
EXTT16=
EXTT17=
EXTT18=
EXTT19=
PLAYORDER=
